<?xml version="1.0" encoding="UTF-8"?>
<svg xmlns="http://www.w3.org/2000/svg" xmlns:xlink="http://www.w3.org/1999/xlink" width="px" height="150px" viewBox="0 0 129 149" version="1.1">
<g id="surface1">
<path style=" stroke:none;fill-rule:evenodd;fill:rgb(0%,0%,0%);fill-opacity:1;" d="M 0 0.0078125 L 0.0078125 0 L 0 -0.0078125 L 0.015625 0 Z M 0.0078125 0 L 0 -0.0078125 Z M 0.0078125 0 "/>
<path style=" stroke:none;fill-rule:evenodd;fill:rgb(0%,0%,0%);fill-opacity:1;" d="M 0.015625 0 L 0.0078125 0.0078125 L 0.0078125 0 L 0 0 L 0.0078125 0 L 0.0078125 -0.0078125 Z M 0.015625 0 "/>
<path style="fill-rule:evenodd;fill:rgb(100%,100%,100%);fill-opacity:1;stroke-width:375;stroke-linecap:butt;stroke-linejoin:round;stroke:rgb(0%,0%,0%);stroke-opacity:1;stroke-miterlimit:4;" d="M 1437.216116 16440.071309 L 1437.216116 1439.209207 L 9770.927961 1439.209207 L 13937.783884 5605.933096 L 13937.783884 16440.071309 Z M 1437.216116 16440.071309 " transform="matrix(0.00839024,0,0,0.0083352,0,0)"/>
<path style=" stroke:none;fill-rule:evenodd;fill:rgb(69.803922%,69.803922%,69.803922%);fill-opacity:1;" d="M 81.972656 11.976562 L 116.941406 46.71875 L 81.972656 46.71875 Z M 81.972656 11.976562 Z M 116.941406 46.71875 Z M 116.941406 46.71875 "/>
<path style="fill:none;stroke-width:375;stroke-linecap:butt;stroke-linejoin:round;stroke:rgb(0%,0%,0%);stroke-opacity:1;stroke-miterlimit:4;" d="M 9769.99682 1436.865982 L 13937.783884 5604.995805 L 9769.99682 5604.995805 Z M 9769.99682 1436.865982 " transform="matrix(0.00839024,0,0,0.0083352,0,0)"/>
<path style=" stroke:none;fill-rule:evenodd;fill:rgb(100%,100%,100%);fill-opacity:1;" d="M 63.625 100.023438 C 61.171875 100.023438 58.730469 102.449219 58.730469 104.882812 L 58.730469 124.335938 C 58.730469 126.769531 61.171875 129.203125 63.625 129.203125 L 120.960938 129.203125 C 123.410156 129.203125 125.863281 126.769531 125.863281 124.335938 L 125.863281 104.882812 C 125.863281 102.449219 123.410156 100.023438 120.960938 100.023438 Z M 58.730469 100.023438 Z M 125.863281 129.203125 Z M 125.863281 129.203125 "/>
<path style="fill:none;stroke-width:200;stroke-linecap:butt;stroke-linejoin:round;stroke:rgb(20%,20%,20%);stroke-opacity:1;stroke-miterlimit:4;" d="M 7583.212209 12000.127307 C 7290.833939 12000.127307 6999.85238 12291.155935 6999.85238 12583.121854 L 6999.85238 14916.974622 C 6999.85238 15208.940541 7290.833939 15500.90646 7583.212209 15500.90646 L 14416.855923 15500.90646 C 14708.768623 15500.90646 15001.146893 15208.940541 15001.146893 14916.974622 L 15001.146893 12583.121854 C 15001.146893 12291.155935 14708.768623 12000.127307 14416.855923 12000.127307 Z M 7583.212209 12000.127307 " transform="matrix(0.00839024,0,0,0.0083352,0,0)"/>
<path style=" stroke:none;fill-rule:evenodd;fill:rgb(20%,60%,100%);fill-opacity:1;" d="M 63.765625 119.058594 L 68.765625 119.058594 L 68.765625 124.660156 L 63.765625 124.660156 Z M 83.140625 116.441406 L 87.710938 118.09375 L 87.585938 118.652344 L 87.441406 119.183594 L 87.285156 119.703125 L 87.109375 120.195312 L 86.921875 120.660156 L 86.714844 121.101562 L 86.496094 121.519531 L 86.25 121.917969 L 86 122.285156 L 85.730469 122.644531 L 85.453125 122.96875 L 85.152344 123.269531 L 84.832031 123.550781 L 84.507812 123.800781 L 84.164062 124.035156 L 83.800781 124.246094 L 83.425781 124.417969 L 83.019531 124.578125 L 82.585938 124.71875 L 82.132812 124.820312 L 81.652344 124.917969 L 81.152344 124.96875 L 80.621094 125.011719 L 80.066406 125.019531 L 79.398438 125.011719 L 78.75 124.960938 L 78.136719 124.886719 L 77.566406 124.777344 L 77.023438 124.652344 L 76.503906 124.484375 L 76.015625 124.285156 L 75.570312 124.0625 L 75.144531 123.800781 L 74.730469 123.496094 L 74.328125 123.152344 L 73.941406 122.753906 L 73.582031 122.3125 L 73.222656 121.828125 L 72.886719 121.285156 L 72.558594 120.710938 L 72.265625 120.085938 L 72.003906 119.425781 L 71.796875 118.71875 L 71.617188 117.976562 L 71.476562 117.183594 L 71.375 116.34375 L 71.316406 115.46875 L 71.300781 114.558594 L 71.332031 113.351562 L 71.441406 112.199219 L 71.609375 111.140625 L 71.855469 110.140625 L 72.003906 109.667969 L 72.164062 109.214844 L 72.347656 108.78125 L 72.550781 108.359375 L 72.761719 107.972656 L 73.003906 107.582031 L 73.246094 107.222656 L 73.523438 106.882812 L 73.800781 106.550781 L 74.101562 106.25 L 74.421875 105.964844 L 74.75 105.699219 L 75.09375 105.457031 L 75.453125 105.238281 L 75.824219 105.039062 L 76.207031 104.855469 L 77.03125 104.566406 L 77.902344 104.355469 L 78.835938 104.230469 L 79.824219 104.191406 L 80.605469 104.207031 L 81.335938 104.28125 L 82.023438 104.40625 L 82.675781 104.574219 L 83.273438 104.78125 L 83.835938 105.058594 L 84.355469 105.375 L 84.832031 105.730469 L 85.277344 106.140625 L 85.691406 106.605469 L 86.066406 107.105469 L 86.429688 107.675781 L 86.746094 108.300781 L 87.046875 108.957031 L 87.308594 109.683594 L 87.550781 110.457031 L 82.9375 111.675781 L 82.8125 111.242188 L 82.753906 111.050781 L 82.695312 110.875 L 82.628906 110.714844 L 82.570312 110.566406 L 82.5 110.441406 L 82.433594 110.324219 L 82.324219 110.15625 L 82.207031 109.992188 L 82.082031 109.839844 L 81.949219 109.699219 L 81.8125 109.574219 L 81.671875 109.441406 L 81.519531 109.339844 L 81.367188 109.234375 L 81.210938 109.140625 L 81.042969 109.066406 L 80.875 109 L 80.699219 108.941406 L 80.511719 108.898438 L 80.328125 108.867188 L 80.144531 108.859375 L 79.949219 108.847656 L 79.734375 108.859375 L 79.515625 108.875 L 79.3125 108.90625 L 79.113281 108.949219 L 78.917969 109.015625 L 78.734375 109.089844 L 78.558594 109.175781 L 78.382812 109.273438 L 78.214844 109.382812 L 78.054688 109.507812 L 77.902344 109.65625 L 77.753906 109.800781 L 77.609375 109.972656 L 77.484375 110.148438 L 77.359375 110.339844 L 77.230469 110.550781 L 77.148438 110.714844 L 77.0625 110.882812 L 76.988281 111.074219 L 76.921875 111.273438 L 76.804688 111.691406 L 76.695312 112.167969 L 76.621094 112.691406 L 76.5625 113.25 L 76.527344 113.859375 L 76.519531 114.515625 L 76.535156 115.324219 L 76.570312 116.058594 L 76.644531 116.734375 L 76.730469 117.34375 L 76.855469 117.875 L 76.921875 118.132812 L 77.003906 118.351562 L 77.082031 118.578125 L 77.171875 118.761719 L 77.265625 118.941406 L 77.375 119.109375 L 77.484375 119.261719 L 77.59375 119.402344 L 77.71875 119.535156 L 77.84375 119.660156 L 77.96875 119.761719 L 78.113281 119.867188 L 78.253906 119.960938 L 78.398438 120.042969 L 78.550781 120.117188 L 78.707031 120.175781 L 78.875 120.234375 L 79.042969 120.277344 L 79.398438 120.328125 L 79.765625 120.351562 L 80.125 120.34375 L 80.472656 120.285156 L 80.789062 120.21875 L 80.941406 120.160156 L 81.074219 120.101562 L 81.21875 120.035156 L 81.351562 119.960938 L 81.476562 119.875 L 81.59375 119.792969 L 81.710938 119.683594 L 81.828125 119.585938 L 81.929688 119.476562 L 82.03125 119.351562 L 82.214844 119.09375 L 82.390625 118.792969 L 82.550781 118.46875 L 82.695312 118.117188 L 82.820312 117.742188 L 82.945312 117.335938 L 83.054688 116.902344 Z M 89.332031 117.828125 L 94.289062 117.828125 L 94.332031 118.152344 L 94.382812 118.46875 L 94.457031 118.75 L 94.53125 119.027344 L 94.625 119.277344 L 94.71875 119.5 L 94.828125 119.710938 L 94.945312 119.902344 L 95.054688 120.035156 L 95.164062 120.175781 L 95.269531 120.285156 L 95.398438 120.402344 L 95.523438 120.511719 L 95.648438 120.601562 L 95.78125 120.683594 L 95.925781 120.761719 L 96.078125 120.835938 L 96.226562 120.886719 L 96.386719 120.945312 L 96.546875 120.984375 L 96.890625 121.035156 L 97.25 121.058594 L 97.519531 121.042969 L 97.773438 121.011719 L 98.007812 120.96875 L 98.234375 120.902344 L 98.441406 120.808594 L 98.636719 120.710938 L 98.71875 120.644531 L 98.8125 120.585938 L 98.886719 120.511719 L 98.972656 120.433594 L 99.105469 120.277344 L 99.230469 120.109375 L 99.28125 120.027344 L 99.332031 119.925781 L 99.375 119.84375 L 99.414062 119.761719 L 99.449219 119.667969 L 99.484375 119.578125 L 99.507812 119.476562 L 99.535156 119.386719 L 99.550781 119.292969 L 99.558594 119.183594 L 99.566406 119.09375 L 99.566406 118.894531 L 99.558594 118.792969 L 99.550781 118.703125 L 99.535156 118.609375 L 99.515625 118.511719 L 99.492188 118.417969 L 99.457031 118.335938 L 99.425781 118.25 L 99.390625 118.152344 L 99.347656 118.066406 L 99.25 117.902344 L 99.128906 117.742188 L 98.996094 117.585938 L 98.914062 117.507812 L 98.828125 117.425781 L 98.726562 117.351562 L 98.617188 117.285156 L 98.351562 117.125 L 98.039062 116.976562 L 97.679688 116.84375 L 97.277344 116.691406 L 96.320312 116.417969 L 95.496094 116.175781 L 94.734375 115.910156 L 94.03125 115.640625 L 93.382812 115.34375 L 92.804688 115.027344 L 92.292969 114.691406 L 91.832031 114.332031 L 91.628906 114.160156 L 91.4375 113.96875 L 91.261719 113.777344 L 91.09375 113.574219 L 90.933594 113.367188 L 90.789062 113.160156 L 90.65625 112.933594 L 90.539062 112.707031 L 90.421875 112.476562 L 90.328125 112.234375 L 90.238281 111.992188 L 90.171875 111.742188 L 90.09375 111.476562 L 90.050781 111.207031 L 90.011719 110.941406 L 89.984375 110.667969 L 89.960938 110.082031 L 89.96875 109.699219 L 90.003906 109.316406 L 90.0625 108.941406 L 90.152344 108.574219 L 90.253906 108.207031 L 90.386719 107.847656 L 90.539062 107.5 L 90.714844 107.148438 L 90.917969 106.816406 L 91.136719 106.5 L 91.386719 106.199219 L 91.65625 105.921875 L 91.957031 105.65625 L 92.277344 105.414062 L 92.621094 105.199219 L 92.980469 104.980469 L 93.375 104.796875 L 93.8125 104.640625 L 94.265625 104.5 L 94.769531 104.398438 L 95.304688 104.316406 L 95.882812 104.25 L 96.488281 104.207031 L 97.132812 104.199219 L 97.921875 104.214844 L 98.652344 104.289062 L 99.339844 104.40625 L 99.976562 104.566406 L 100.574219 104.765625 L 101.121094 105.015625 L 101.371094 105.164062 L 101.613281 105.324219 L 101.839844 105.492188 L 102.058594 105.664062 L 102.269531 105.855469 L 102.46875 106.066406 L 102.65625 106.289062 L 102.824219 106.523438 L 102.992188 106.765625 L 103.140625 107.023438 L 103.292969 107.300781 L 103.417969 107.582031 L 103.535156 107.890625 L 103.652344 108.207031 L 103.835938 108.867188 L 103.988281 109.589844 L 104.082031 110.367188 L 99.171875 110.367188 L 99.113281 110.066406 L 99.046875 109.78125 L 98.964844 109.507812 L 98.863281 109.273438 L 98.753906 109.058594 L 98.695312 108.949219 L 98.636719 108.859375 L 98.558594 108.757812 L 98.492188 108.675781 L 98.417969 108.589844 L 98.34375 108.515625 L 98.265625 108.449219 L 98.175781 108.382812 L 98.097656 108.316406 L 98 108.265625 L 97.804688 108.15625 L 97.605469 108.089844 L 97.367188 108.023438 L 97.132812 107.972656 L 96.882812 107.949219 L 96.613281 107.941406 L 96.394531 107.949219 L 96.1875 107.972656 L 95.992188 108.007812 L 95.808594 108.058594 L 95.648438 108.117188 L 95.574219 108.15625 L 95.507812 108.207031 L 95.429688 108.25 L 95.371094 108.300781 L 95.304688 108.347656 L 95.246094 108.40625 L 95.144531 108.515625 L 95.042969 108.648438 L 95.003906 108.707031 L 94.960938 108.773438 L 94.925781 108.847656 L 94.894531 108.90625 L 94.867188 108.984375 L 94.851562 109.058594 L 94.828125 109.132812 L 94.808594 109.199219 L 94.800781 109.273438 L 94.785156 109.359375 L 94.777344 109.433594 L 94.777344 109.582031 L 94.785156 109.632812 L 94.800781 109.699219 L 94.816406 109.816406 L 94.835938 109.867188 L 94.851562 109.917969 L 94.875 109.984375 L 94.902344 110.03125 L 94.925781 110.082031 L 94.996094 110.183594 L 95.070312 110.28125 L 95.210938 110.433594 L 95.261719 110.484375 L 95.339844 110.523438 L 95.40625 110.582031 L 95.582031 110.675781 L 95.78125 110.765625 L 96.019531 110.867188 L 96.285156 110.949219 L 96.914062 111.125 L 98.5 111.566406 L 99.84375 112.007812 L 100.421875 112.234375 L 100.941406 112.449219 L 101.414062 112.683594 L 101.808594 112.910156 L 102.167969 113.132812 L 102.496094 113.375 L 102.804688 113.640625 L 103.082031 113.917969 L 103.34375 114.199219 L 103.570312 114.492188 L 103.769531 114.808594 L 103.957031 115.132812 L 104.113281 115.46875 L 104.257812 115.816406 L 104.375 116.183594 L 104.46875 116.550781 L 104.542969 116.925781 L 104.59375 117.308594 L 104.625 117.710938 L 104.632812 118.117188 L 104.617188 118.59375 L 104.585938 119.066406 L 104.515625 119.519531 L 104.417969 119.976562 L 104.28125 120.417969 L 104.132812 120.84375 L 103.945312 121.277344 L 103.738281 121.6875 L 103.503906 122.085938 L 103.242188 122.453125 L 102.964844 122.800781 L 102.664062 123.128906 L 102.335938 123.417969 L 101.984375 123.695312 L 101.613281 123.953125 L 101.226562 124.167969 L 100.808594 124.371094 L 100.371094 124.535156 L 99.902344 124.6875 L 99.40625 124.804688 L 98.886719 124.894531 L 98.34375 124.960938 L 97.773438 125.003906 L 97.167969 125.011719 L 96.128906 124.976562 L 95.179688 124.886719 L 94.316406 124.726562 L 93.519531 124.503906 L 93.15625 124.371094 L 92.8125 124.21875 L 92.492188 124.054688 L 92.199219 123.859375 L 91.914062 123.675781 L 91.65625 123.453125 L 91.421875 123.21875 L 91.203125 122.976562 L 90.816406 122.453125 L 90.464844 121.894531 L 90.160156 121.308594 L 89.902344 120.675781 L 89.691406 120.019531 L 89.523438 119.320312 L 89.40625 118.59375 Z M 106.347656 117.828125 L 111.304688 117.828125 L 111.347656 118.152344 L 111.398438 118.46875 L 111.472656 118.75 L 111.546875 119.027344 L 111.640625 119.277344 L 111.734375 119.5 L 111.84375 119.710938 L 111.96875 119.902344 L 112.070312 120.035156 L 112.175781 120.175781 L 112.285156 120.285156 L 112.414062 120.402344 L 112.539062 120.511719 L 112.671875 120.601562 L 112.796875 120.683594 L 112.941406 120.761719 L 113.09375 120.835938 L 113.242188 120.886719 L 113.402344 120.945312 L 113.5625 120.984375 L 113.90625 121.035156 L 114.265625 121.058594 L 114.535156 121.042969 L 114.785156 121.011719 L 115.023438 120.96875 L 115.257812 120.902344 L 115.457031 120.808594 L 115.652344 120.710938 L 115.734375 120.644531 L 115.828125 120.585938 L 115.902344 120.511719 L 115.988281 120.433594 L 116.128906 120.277344 L 116.246094 120.109375 L 116.304688 120.027344 L 116.347656 119.925781 L 116.390625 119.84375 L 116.429688 119.761719 L 116.472656 119.667969 L 116.5 119.578125 L 116.523438 119.476562 L 116.550781 119.386719 L 116.566406 119.292969 L 116.574219 119.183594 L 116.582031 119.09375 L 116.582031 118.894531 L 116.574219 118.792969 L 116.566406 118.703125 L 116.550781 118.609375 L 116.53125 118.511719 L 116.507812 118.417969 L 116.480469 118.335938 L 116.441406 118.25 L 116.40625 118.152344 L 116.363281 118.066406 L 116.261719 117.902344 L 116.144531 117.742188 L 116.011719 117.585938 L 115.929688 117.507812 L 115.84375 117.425781 L 115.742188 117.351562 L 115.632812 117.285156 L 115.367188 117.125 L 115.054688 116.976562 L 114.695312 116.84375 L 114.292969 116.691406 L 113.335938 116.417969 L 112.511719 116.175781 L 111.75 115.910156 L 111.042969 115.640625 L 110.40625 115.34375 L 109.820312 115.027344 L 109.308594 114.691406 L 108.855469 114.332031 L 108.644531 114.160156 L 108.453125 113.96875 L 108.277344 113.777344 L 108.109375 113.574219 L 107.949219 113.367188 L 107.816406 113.160156 L 107.671875 112.933594 L 107.554688 112.707031 L 107.4375 112.476562 L 107.34375 112.234375 L 107.253906 111.992188 L 107.183594 111.742188 L 107.117188 111.476562 L 107.066406 111.207031 L 107.027344 110.941406 L 107 110.667969 L 106.976562 110.082031 L 106.984375 109.699219 L 107.015625 109.316406 L 107.078125 108.941406 L 107.167969 108.574219 L 107.269531 108.207031 L 107.402344 107.847656 L 107.554688 107.5 L 107.730469 107.148438 L 107.933594 106.816406 L 108.160156 106.5 L 108.402344 106.199219 L 108.679688 105.921875 L 108.972656 105.65625 L 109.292969 105.414062 L 109.636719 105.199219 L 109.996094 104.980469 L 110.398438 104.796875 L 110.828125 104.640625 L 111.289062 104.5 L 111.792969 104.398438 L 112.328125 104.316406 L 112.898438 104.25 L 113.503906 104.207031 L 114.148438 104.199219 L 114.9375 104.214844 L 115.667969 104.289062 L 116.355469 104.40625 L 117 104.566406 L 117.589844 104.765625 L 118.132812 105.015625 L 118.394531 105.164062 L 118.628906 105.324219 L 118.855469 105.492188 L 119.082031 105.664062 L 119.285156 105.855469 L 119.484375 106.066406 L 119.671875 106.289062 L 119.835938 106.523438 L 120.003906 106.765625 L 120.15625 107.023438 L 120.308594 107.300781 L 120.433594 107.582031 L 120.550781 107.890625 L 120.667969 108.207031 L 120.851562 108.867188 L 121.003906 109.589844 L 121.097656 110.367188 L 116.1875 110.367188 L 116.136719 110.066406 L 116.0625 109.78125 L 115.976562 109.507812 L 115.878906 109.273438 L 115.777344 109.058594 L 115.710938 108.949219 L 115.652344 108.859375 L 115.574219 108.757812 L 115.507812 108.675781 L 115.441406 108.589844 L 115.359375 108.515625 L 115.28125 108.449219 L 115.191406 108.382812 L 115.113281 108.316406 L 115.011719 108.265625 L 114.820312 108.15625 L 114.617188 108.089844 L 114.394531 108.023438 L 114.148438 107.972656 L 113.898438 107.949219 L 113.628906 107.941406 L 113.410156 107.949219 L 113.199219 107.972656 L 113.015625 108.007812 L 112.832031 108.058594 L 112.671875 108.117188 L 112.589844 108.15625 L 112.523438 108.207031 L 112.445312 108.25 L 112.386719 108.300781 L 112.328125 108.347656 L 112.261719 108.40625 L 112.160156 108.515625 L 112.058594 108.648438 L 112.019531 108.707031 L 111.984375 108.773438 L 111.941406 108.847656 L 111.910156 108.90625 L 111.882812 108.984375 L 111.867188 109.058594 L 111.84375 109.132812 L 111.824219 109.199219 L 111.816406 109.273438 L 111.808594 109.359375 L 111.800781 109.433594 L 111.800781 109.582031 L 111.808594 109.632812 L 111.816406 109.699219 L 111.832031 109.816406 L 111.851562 109.867188 L 111.867188 109.917969 L 111.890625 109.984375 L 111.917969 110.03125 L 111.941406 110.082031 L 112.007812 110.183594 L 112.085938 110.28125 L 112.175781 110.382812 L 112.277344 110.484375 L 112.355469 110.523438 L 112.421875 110.582031 L 112.597656 110.675781 L 112.796875 110.765625 L 113.035156 110.867188 L 113.300781 110.949219 L 113.929688 111.125 L 115.515625 111.566406 L 116.859375 112.007812 L 117.4375 112.234375 L 117.957031 112.449219 L 118.429688 112.683594 L 118.824219 112.910156 L 119.183594 113.132812 L 119.511719 113.375 L 119.820312 113.640625 L 120.097656 113.917969 L 120.359375 114.199219 L 120.585938 114.492188 L 120.785156 114.808594 L 120.980469 115.132812 L 121.128906 115.46875 L 121.273438 115.816406 L 121.390625 116.183594 L 121.480469 116.550781 L 121.558594 116.925781 L 121.609375 117.308594 L 121.640625 117.710938 L 121.648438 118.117188 L 121.632812 118.59375 L 121.601562 119.066406 L 121.53125 119.519531 L 121.433594 119.976562 L 121.296875 120.417969 L 121.15625 120.84375 L 120.960938 121.277344 L 120.753906 121.6875 L 120.515625 122.085938 L 120.257812 122.453125 L 119.980469 122.800781 L 119.679688 123.128906 L 119.351562 123.417969 L 119 123.695312 L 118.628906 123.953125 L 118.242188 124.167969 L 117.824219 124.371094 L 117.386719 124.535156 L 116.917969 124.6875 L 116.421875 124.804688 L 115.902344 124.894531 L 115.359375 124.960938 L 114.785156 125.003906 L 114.183594 125.011719 L 113.140625 124.976562 L 112.195312 124.886719 L 111.332031 124.726562 L 110.53125 124.503906 L 110.171875 124.371094 L 109.828125 124.21875 L 109.507812 124.054688 L 109.214844 123.859375 L 108.929688 123.675781 L 108.679688 123.453125 L 108.433594 123.21875 L 108.21875 122.976562 L 107.832031 122.453125 L 107.480469 121.894531 L 107.175781 121.308594 L 106.917969 120.675781 L 106.707031 120.019531 L 106.539062 119.320312 L 106.429688 118.59375 Z M 106.347656 117.828125 "/>
<path style="fill:none;stroke-width:26;stroke-linecap:butt;stroke-linejoin:miter;stroke:rgb(0%,0%,0%);stroke-opacity:1;stroke-miterlimit:4;" d="M 7599.972747 14283.835046 L 8195.90298 14283.835046 L 8195.90298 14955.872169 L 7599.972747 14955.872169 Z M 7599.972747 14283.835046 " transform="matrix(0.00839024,0,0,0.0083352,0,0)"/>
<path style="fill:none;stroke-width:26;stroke-linecap:butt;stroke-linejoin:miter;stroke:rgb(0%,0%,0%);stroke-opacity:1;stroke-miterlimit:4;" d="M 9909.202398 13969.842806 L 10453.919876 14168.079698 L 10439.021621 14235.095952 L 10421.795512 14298.83169 L 10403.172693 14361.161493 L 10382.22202 14420.21078 L 10359.874637 14475.979551 L 10335.1994 14528.936451 L 10309.127453 14579.081481 L 10279.796512 14626.883284 L 10250 14670.935927 L 10217.875636 14714.051279 L 10184.820131 14752.948826 L 10148.971203 14789.034501 L 10110.794422 14822.776951 L 10072.152071 14852.770239 L 10031.181868 14880.888947 L 9987.883812 14906.195784 L 9943.189044 14926.81617 L 9894.769713 14946.030621 L 9843.091388 14962.901846 L 9789.085211 14975.086619 L 9731.82004 14986.802747 L 9672.227017 14992.895134 L 9608.90943 14998.050231 L 9542.798419 14998.987521 L 9463.185865 14998.050231 L 9385.901163 14991.957844 L 9312.806595 14983.053586 L 9244.833303 14969.931523 L 9180.119004 14954.934878 L 9118.198129 14934.783138 L 9060.001817 14910.882236 L 9006.926781 14884.169463 L 8956.179597 14852.770239 L 8906.829124 14816.215919 L 8858.875363 14774.975147 L 8812.783884 14727.173343 L 8769.951399 14674.216443 L 8727.118914 14616.104446 L 8687.079851 14550.962773 L 8647.97193 14482.071938 L 8613.054142 14407.088716 L 8581.860919 14327.887689 L 8557.185683 14243.062919 L 8535.76944 14154.020344 L 8519.008903 14058.885382 L 8506.90407 13958.126678 L 8499.920512 13853.150168 L 8498.05823 13743.955852 L 8501.782794 13599.144505 L 8514.818768 13460.89419 L 8534.838299 13333.891359 L 8564.169241 13213.918205 L 8581.860919 13157.212143 L 8600.94931 13102.849308 L 8622.831123 13050.829698 L 8647.040789 13000.216023 L 8672.181595 12953.820155 L 8701.046966 12906.955642 L 8729.912336 12863.840289 L 8762.967842 12823.068163 L 8796.023347 12783.233326 L 8831.872275 12747.147651 L 8870.049055 12712.936556 L 8909.156977 12681.068687 L 8950.12718 12652.012689 L 8992.959666 12625.768561 L 9037.188863 12601.867659 L 9082.814771 12579.841338 L 9181.050145 12545.161598 L 9284.872366 12519.854761 L 9396.143714 12504.858117 L 9513.933049 12500.171665 L 9607.047148 12502.046246 L 9694.10883 12510.950503 L 9776.049237 12525.947148 L 9853.799509 12546.098888 L 9925.031795 12570.937081 L 9992.073946 12604.210885 L 10053.994822 12642.171141 L 10110.794422 12684.817848 L 10163.869459 12734.025587 L 10213.219931 12789.794358 L 10257.914698 12849.780935 L 10301.212754 12918.203125 L 10338.923964 12993.186346 L 10374.772892 13071.918729 L 10405.966116 13159.086724 L 10434.831486 13251.878461 L 9884.992733 13398.095742 L 9870.094477 13346.076133 L 9863.110919 13323.112521 L 9856.127362 13302.02349 L 9848.212664 13282.809039 L 9841.229106 13265.000524 L 9832.848837 13250.00388 L 9824.934139 13235.944526 L 9811.898165 13215.792785 L 9797.93105 13196.10969 L 9783.032794 13177.832529 L 9767.203398 13160.961305 L 9750.90843 13145.96466 L 9734.147892 13130.030726 L 9715.990643 13117.845952 L 9697.833394 13105.192534 L 9679.210574 13093.94505 L 9659.191043 13085.040793 L 9639.171512 13077.073826 L 9618.220839 13070.044148 L 9595.873456 13064.889052 L 9573.991642 13061.139891 L 9552.109829 13060.202601 L 9528.831305 13058.796665 L 9503.224927 13060.202601 L 9477.15298 13062.077181 L 9452.943314 13065.826342 L 9429.199219 13070.981439 L 9405.920694 13078.948406 L 9384.038881 13087.852664 L 9363.088209 13098.162857 L 9342.137536 13109.878985 L 9322.118005 13123.001049 L 9303.029615 13137.997693 L 9284.872366 13155.806208 L 9267.180687 13173.146078 L 9249.954578 13193.766464 L 9235.056323 13214.855495 L 9220.158067 13237.819107 L 9204.794241 13263.125944 L 9195.01726 13282.809039 L 9184.774709 13302.96078 L 9175.92887 13325.924392 L 9168.014172 13349.825294 L 9154.047057 13399.970323 L 9141.011083 13457.145029 L 9132.165243 13519.943477 L 9125.181686 13586.959732 L 9120.991552 13660.068372 L 9120.060411 13738.800755 L 9121.922693 13835.810298 L 9126.112827 13923.915583 L 9134.958666 14004.991191 L 9145.201217 14078.099832 L 9160.099473 14141.83557 L 9168.014172 14172.766149 L 9177.791152 14199.010277 L 9187.102562 14226.191695 L 9197.810683 14248.218016 L 9208.984375 14269.775692 L 9222.020349 14289.927433 L 9235.056323 14308.204593 L 9248.092297 14325.075818 L 9262.990552 14341.009753 L 9277.888808 14356.006397 L 9292.787064 14368.19117 L 9310.013172 14380.844589 L 9326.77371 14392.092072 L 9343.999818 14401.93362 L 9362.157068 14410.837878 L 9380.779887 14417.867555 L 9400.799419 14424.897232 L 9420.81895 14430.052328 L 9463.185865 14436.144715 L 9506.949491 14438.956586 L 9549.781977 14438.019295 L 9591.217751 14430.989618 L 9628.928961 14423.022651 L 9647.08621 14415.992974 L 9662.915607 14408.963297 L 9680.141715 14400.99633 L 9695.971112 14392.092072 L 9710.869368 14381.781879 L 9724.836483 14371.940331 L 9738.803597 14358.818268 L 9752.770712 14347.102139 L 9764.875545 14333.980076 L 9776.980378 14318.983431 L 9798.862191 14288.052852 L 9819.812863 14251.967177 L 9838.901254 14213.069631 L 9856.127362 14170.891569 L 9871.025618 14125.901636 L 9885.923874 14077.162542 L 9898.959847 14025.142932 Z M 9909.202398 13969.842806 " transform="matrix(0.00839024,0,0,0.0083352,0,0)"/>
<path style="fill:none;stroke-width:26;stroke-linecap:butt;stroke-linejoin:miter;stroke:rgb(0%,0%,0%);stroke-opacity:1;stroke-miterlimit:4;" d="M 10647.131632 14136.211829 L 11237.940589 14136.211829 L 11243.061864 14175.109375 L 11249.114281 14213.069631 L 11257.96012 14246.812081 L 11266.805959 14280.085885 L 11277.979651 14310.079174 L 11289.153343 14336.791946 L 11302.189317 14362.098784 L 11316.156432 14385.062395 L 11329.192406 14400.99633 L 11342.228379 14417.867555 L 11354.798783 14430.989618 L 11370.162609 14445.048972 L 11385.060865 14458.171036 L 11399.959121 14468.949874 L 11415.788517 14478.791422 L 11433.014626 14488.164325 L 11451.171875 14497.068582 L 11468.863554 14503.160969 L 11487.951944 14510.190646 L 11507.040334 14514.877097 L 11548.010538 14520.969484 L 11590.843023 14523.781355 L 11622.967387 14521.906774 L 11653.229469 14518.157613 L 11681.163699 14513.002517 L 11708.166788 14505.035549 L 11732.842024 14493.788066 L 11756.120549 14482.071938 L 11765.897529 14474.104971 L 11777.071221 14467.075294 L 11785.91706 14458.171036 L 11796.159611 14448.798133 L 11811.989008 14430.052328 L 11826.887264 14409.900587 L 11832.93968 14400.059039 L 11838.992097 14387.874266 L 11844.113372 14378.032718 L 11848.769077 14368.19117 L 11852.959211 14356.943687 L 11857.149346 14346.164849 L 11859.942769 14333.980076 L 11863.201762 14323.201237 L 11865.064044 14311.953754 L 11865.995185 14298.83169 L 11866.926326 14288.052852 L 11866.926326 14264.151951 L 11865.995185 14251.967177 L 11865.064044 14241.188339 L 11863.201762 14229.940856 L 11860.87391 14218.224727 L 11858.080487 14206.977244 L 11853.890352 14197.135696 L 11850.165789 14186.825503 L 11845.975654 14175.109375 L 11840.854379 14164.799182 L 11829.215116 14145.116086 L 11814.782431 14125.901636 L 11798.953034 14107.155831 L 11789.176054 14097.782928 L 11778.933503 14087.94138 L 11766.82867 14079.037122 L 11753.792696 14071.070155 L 11722.133903 14051.855705 L 11684.888263 14034.04719 L 11642.055778 14018.113255 L 11594.102017 13999.836095 L 11480.037246 13967.030935 L 11381.801871 13937.974937 L 11291.015625 13906.107068 L 11207.212936 13873.770554 L 11129.928234 13838.153523 L 11061.023801 13800.193268 L 11000.034066 13759.889786 L 10945.096748 13716.774434 L 10920.887082 13696.154048 L 10898.074128 13673.190436 L 10877.123456 13650.226825 L 10857.103924 13625.857278 L 10838.015534 13601.019086 L 10820.789426 13576.180893 L 10804.960029 13548.999476 L 10790.992914 13521.818058 L 10777.025799 13494.167995 L 10765.852108 13465.111997 L 10755.143986 13436.055998 L 10747.229288 13406.06271 L 10737.917878 13374.194841 L 10732.796602 13341.858326 L 10728.140898 13309.990457 L 10724.881904 13277.185298 L 10722.088481 13206.888528 L 10723.019622 13160.961305 L 10727.209757 13115.034081 L 10734.193314 13070.044148 L 10744.901435 13025.991506 L 10757.006268 12981.938863 L 10772.835665 12938.823511 L 10790.992914 12897.114094 L 10811.943586 12854.936032 L 10836.153252 12815.101195 L 10862.2252 12777.14094 L 10892.021711 12741.055264 L 10924.146076 12707.78146 L 10959.995004 12675.913591 L 10998.171784 12646.857592 L 11039.141988 12621.08211 L 11081.974473 12594.837982 L 11128.997093 12572.811661 L 11181.140988 12554.065856 L 11235.147166 12537.194631 L 11295.205759 12525.009857 L 11358.988917 12515.16831 L 11427.89335 12507.201342 L 11500.056777 12502.046246 L 11576.875908 12501.108956 L 11670.921148 12502.983536 L 11757.982831 12511.887794 L 11839.923238 12525.947148 L 11915.811228 12545.161598 L 11987.043514 12569.0625 L 12052.223383 12599.055789 L 12082.019895 12616.864304 L 12110.885265 12636.078754 L 12137.888354 12656.230495 L 12163.960302 12676.850881 L 12189.101108 12699.814492 L 12212.845203 12725.12133 L 12235.192587 12751.834102 L 12255.212118 12779.95281 L 12275.23165 12809.008809 L 12292.923328 12839.939388 L 12311.080578 12873.213192 L 12325.978834 12906.955642 L 12339.945948 12943.978607 L 12353.913063 12981.938863 L 12375.794876 13061.139891 L 12393.952126 13147.839241 L 12405.125818 13241.099622 L 11819.903706 13241.099622 L 11812.920149 13205.013947 L 11805.005451 13170.802852 L 11795.22847 13137.997693 L 11783.123637 13109.878985 L 11770.087664 13084.103503 L 11763.104106 13070.981439 L 11756.120549 13060.202601 L 11746.809139 13048.017827 L 11738.89444 13038.176279 L 11730.048601 13027.866086 L 11721.202762 13018.961829 L 11711.891352 13010.994862 L 11701.18323 13003.027894 L 11691.87182 12995.060927 L 11680.232558 12988.96854 L 11656.954033 12975.846477 L 11633.209938 12967.879509 L 11604.810138 12959.912542 L 11576.875908 12953.820155 L 11547.079397 12951.008284 L 11514.955033 12950.070994 L 11488.883085 12951.008284 L 11464.207849 12953.820155 L 11440.929324 12958.037961 L 11419.047511 12964.130348 L 11399.959121 12971.160025 L 11391.113281 12975.846477 L 11383.198583 12981.938863 L 11373.887173 12987.09396 L 11366.903616 12993.186346 L 11358.988917 12998.810088 L 11352.00536 13005.839765 L 11339.900527 13018.961829 L 11327.795694 13034.895763 L 11323.139989 13041.92544 L 11318.018714 13049.892408 L 11313.828579 13058.796665 L 11310.104015 13065.826342 L 11306.845022 13075.199245 L 11304.98274 13084.103503 L 11302.189317 13093.00776 L 11299.861464 13100.974727 L 11298.930323 13109.878985 L 11297.068041 13120.189178 L 11296.1369 13129.093435 L 11296.1369 13146.901951 L 11297.068041 13152.994337 L 11298.930323 13160.961305 L 11300.792605 13175.020659 L 11303.120458 13181.113045 L 11304.98274 13187.205432 L 11307.776163 13195.172399 L 11311.035156 13200.796141 L 11313.828579 13206.888528 L 11322.208848 13219.073301 L 11331.054687 13230.78943 L 11347.815225 13249.06659 L 11353.867642 13255.158977 L 11363.179052 13259.845428 L 11371.09375 13266.875105 L 11392.044422 13278.122588 L 11415.788517 13288.901426 L 11444.188318 13301.0862 L 11475.847111 13310.927747 L 11550.803961 13332.016779 L 11739.825581 13384.973679 L 11899.981831 13437.930579 L 11968.886265 13465.111997 L 12030.80714 13490.887479 L 12087.14117 13519.006187 L 12134.16379 13546.187605 L 12176.996275 13572.900378 L 12216.104197 13601.956376 L 12252.884266 13633.824245 L 12285.939771 13667.098049 L 12317.132994 13700.840499 L 12344.136083 13735.988884 L 12367.880178 13773.94914 L 12390.227562 13812.846686 L 12408.850382 13853.150168 L 12426.07649 13894.859585 L 12440.043605 13938.912227 L 12451.217297 13982.96487 L 12460.063136 14027.954803 L 12466.115552 14073.882026 L 12469.840116 14122.152475 L 12470.771257 14170.891569 L 12468.908975 14228.066275 L 12465.184411 14284.772336 L 12456.804142 14339.135172 L 12445.16488 14393.966653 L 12428.869913 14446.923553 L 12411.178234 14498.005872 L 12388.83085 14550.025482 L 12364.155614 14599.233221 L 12336.221384 14647.035025 L 12305.028161 14691.087668 L 12271.972656 14732.797085 L 12236.123728 14772.163276 L 12197.015807 14806.843016 L 12155.114462 14840.11682 L 12110.885265 14871.047399 L 12064.793786 14896.822882 L 12014.977743 14921.192429 L 11962.833848 14940.875524 L 11906.965389 14959.152685 L 11847.837936 14973.212039 L 11785.91706 14983.990877 L 11721.202762 14991.957844 L 11653.229469 14997.11294 L 11581.066043 14998.050231 L 11457.224291 14993.832424 L 11344.090661 14983.053586 L 11241.199582 14963.839136 L 11146.223201 14937.126363 L 11102.925145 14921.192429 L 11061.954942 14902.915268 L 11023.778161 14883.232173 L 10988.860374 14859.799916 L 10954.873728 14837.773595 L 10924.146076 14811.060822 L 10896.211846 14782.942114 L 10870.139898 14753.886116 L 10824.048419 14691.087668 L 10782.147075 14624.071414 L 10745.832576 14553.774643 L 10715.104924 14477.854132 L 10689.964117 14399.121749 L 10669.944586 14315.23427 L 10655.977471 14228.066275 Z M 10647.131632 14136.211829 " transform="matrix(0.00839024,0,0,0.0083352,0,0)"/>
<path style="fill:none;stroke-width:26;stroke-linecap:butt;stroke-linejoin:miter;stroke:rgb(0%,0%,0%);stroke-opacity:1;stroke-miterlimit:4;" d="M 12675.156704 14136.211829 L 13265.965661 14136.211829 L 13271.086937 14175.109375 L 13277.139353 14213.069631 L 13285.985193 14246.812081 L 13294.831032 14280.085885 L 13306.004724 14310.079174 L 13317.178416 14336.791946 L 13330.21439 14362.098784 L 13345.112645 14385.062395 L 13357.217478 14400.99633 L 13369.787882 14417.867555 L 13382.823855 14430.989618 L 13398.187682 14445.048972 L 13413.085937 14458.171036 L 13428.915334 14468.949874 L 13443.81359 14478.791422 L 13461.039698 14488.164325 L 13479.196948 14497.068582 L 13496.888626 14503.160969 L 13515.977017 14510.190646 L 13535.065407 14514.877097 L 13576.03561 14520.969484 L 13618.868096 14523.781355 L 13650.99246 14521.906774 L 13680.788972 14518.157613 L 13709.188772 14513.002517 L 13737.123001 14505.035549 L 13760.867097 14493.788066 L 13784.145621 14482.071938 L 13793.922602 14474.104971 L 13805.096294 14467.075294 L 13813.942133 14458.171036 L 13824.184684 14448.798133 L 13840.945222 14430.052328 L 13854.912336 14409.900587 L 13861.895894 14400.059039 L 13867.017169 14387.874266 L 13872.138445 14378.032718 L 13876.79415 14368.19117 L 13881.915425 14356.943687 L 13885.174419 14346.164849 L 13887.967842 14333.980076 L 13891.226835 14323.201237 L 13893.089117 14311.953754 L 13894.020258 14298.83169 L 13894.951399 14288.052852 L 13894.951399 14264.151951 L 13894.020258 14251.967177 L 13893.089117 14241.188339 L 13891.226835 14229.940856 L 13888.898983 14218.224727 L 13886.10556 14206.977244 L 13882.846566 14197.135696 L 13878.190861 14186.825503 L 13874.000727 14175.109375 L 13868.879451 14164.799182 L 13856.774618 14145.116086 L 13842.807504 14125.901636 L 13826.978107 14107.155831 L 13817.201126 14097.782928 L 13806.958576 14087.94138 L 13794.853743 14079.037122 L 13781.817769 14071.070155 L 13750.158975 14051.855705 L 13712.913336 14034.04719 L 13670.08085 14018.113255 L 13622.127089 13999.836095 L 13508.062318 13967.030935 L 13409.826944 13937.974937 L 13319.040698 13906.107068 L 13234.772438 13873.770554 L 13158.884448 13838.153523 L 13089.048874 13800.193268 L 13028.059139 13759.889786 L 12974.052961 13716.774434 L 12948.912155 13696.154048 L 12926.099201 13673.190436 L 12905.148528 13650.226825 L 12885.128997 13625.857278 L 12866.040607 13601.019086 L 12850.21121 13576.180893 L 12832.985102 13548.999476 L 12819.017987 13521.818058 L 12805.050872 13494.167995 L 12793.87718 13465.111997 L 12783.169059 13436.055998 L 12774.78879 13406.06271 L 12766.874092 13374.194841 L 12760.821675 13341.858326 L 12756.16597 13309.990457 L 12752.906977 13277.185298 L 12750.113554 13206.888528 L 12751.044695 13160.961305 L 12754.769259 13115.034081 L 12762.218387 13070.044148 L 12772.926508 13025.991506 L 12785.031341 12981.938863 L 12800.860738 12938.823511 L 12819.017987 12897.114094 L 12839.968659 12854.936032 L 12864.178325 12815.101195 L 12891.181414 12777.14094 L 12920.046784 12741.055264 L 12953.102289 12707.78146 L 12988.020076 12675.913591 L 13026.196857 12646.857592 L 13067.16706 12621.08211 L 13109.999546 12594.837982 L 13157.953307 12572.811661 L 13209.166061 12554.065856 L 13264.103379 12537.194631 L 13324.161973 12525.009857 L 13387.945131 12515.16831 L 13455.918423 12507.201342 L 13528.08185 12502.046246 L 13604.900981 12501.108956 L 13698.946221 12502.983536 L 13786.007903 12511.887794 L 13867.94831 12525.947148 L 13944.767442 12545.161598 L 14015.068586 12569.0625 L 14079.782885 12599.055789 L 14110.976108 12616.864304 L 14138.910338 12636.078754 L 14165.913427 12656.230495 L 14192.916515 12676.850881 L 14217.126181 12699.814492 L 14240.870276 12725.12133 L 14263.21766 12751.834102 L 14282.771621 12779.95281 L 14302.791152 12809.008809 L 14320.948401 12839.939388 L 14339.10565 12873.213192 L 14354.003906 12906.955642 L 14367.971021 12943.978607 L 14381.938136 12981.938863 L 14403.819949 13061.139891 L 14421.977198 13147.839241 L 14433.15089 13241.099622 L 13847.928779 13241.099622 L 13841.876363 13205.013947 L 13833.030523 13170.802852 L 13822.787972 13137.997693 L 13811.14871 13109.878985 L 13799.043877 13084.103503 L 13791.129179 13070.981439 L 13784.145621 13060.202601 L 13774.834211 13048.017827 L 13766.919513 13038.176279 L 13759.004815 13027.866086 L 13749.227834 13018.961829 L 13739.916424 13010.994862 L 13729.208303 13003.027894 L 13719.896893 12995.060927 L 13707.79206 12988.96854 L 13684.979106 12975.846477 L 13660.76944 12967.879509 L 13634.231922 12959.912542 L 13604.900981 12953.820155 L 13575.104469 12951.008284 L 13542.980105 12950.070994 L 13516.908158 12951.008284 L 13491.767351 12953.820155 L 13469.885538 12958.037961 L 13448.003725 12964.130348 L 13428.915334 12971.160025 L 13419.138354 12975.846477 L 13411.223656 12981.938863 L 13401.912246 12987.09396 L 13394.928688 12993.186346 L 13387.945131 12998.810088 L 13380.030432 13005.839765 L 13367.9256 13018.961829 L 13355.820767 13034.895763 L 13351.165062 13041.92544 L 13346.974927 13049.892408 L 13341.853652 13058.796665 L 13338.129088 13065.826342 L 13334.870094 13075.199245 L 13333.007812 13084.103503 L 13330.21439 13093.00776 L 13327.886537 13100.974727 L 13326.955396 13109.878985 L 13326.024255 13120.189178 L 13325.093114 13129.093435 L 13325.093114 13146.901951 L 13326.024255 13152.994337 L 13326.955396 13160.961305 L 13328.817678 13175.020659 L 13331.145531 13181.113045 L 13333.007812 13187.205432 L 13335.801235 13195.172399 L 13339.060229 13200.796141 L 13341.853652 13206.888528 L 13349.76835 13219.073301 L 13359.07976 13230.78943 L 13369.787882 13242.974203 L 13381.892714 13255.158977 L 13391.204124 13259.845428 L 13399.118823 13266.875105 L 13420.069495 13278.122588 L 13443.81359 13288.901426 L 13472.21339 13301.0862 L 13503.872184 13310.927747 L 13578.829033 13332.016779 L 13767.850654 13384.973679 L 13928.006904 13437.930579 L 13996.911337 13465.111997 L 14058.832213 13490.887479 L 14115.166243 13519.006187 L 14162.188863 13546.187605 L 14205.021348 13572.900378 L 14244.12927 13601.956376 L 14280.909339 13633.824245 L 14313.964844 13667.098049 L 14345.158067 13700.840499 L 14372.161156 13735.988884 L 14395.905251 13773.94914 L 14419.183775 13812.846686 L 14436.875454 13853.150168 L 14454.101562 13894.859585 L 14468.068677 13938.912227 L 14478.776799 13982.96487 L 14488.088209 14027.954803 L 14494.140625 14073.882026 L 14497.865189 14122.152475 L 14498.79633 14170.891569 L 14496.934048 14228.066275 L 14493.209484 14284.772336 L 14484.829215 14339.135172 L 14473.189953 14393.966653 L 14456.894985 14446.923553 L 14440.134448 14498.005872 L 14416.855923 14550.025482 L 14392.180687 14599.233221 L 14363.780887 14647.035025 L 14333.053234 14691.087668 L 14299.997729 14732.797085 L 14264.148801 14772.163276 L 14225.040879 14806.843016 L 14183.139535 14840.11682 L 14138.910338 14871.047399 L 14092.818859 14896.822882 L 14043.002816 14921.192429 L 13990.858921 14940.875524 L 13934.990461 14959.152685 L 13875.863009 14973.212039 L 13813.942133 14983.990877 L 13749.227834 14991.957844 L 13680.788972 14997.11294 L 13609.091116 14998.050231 L 13484.783794 14993.832424 L 13372.115734 14983.053586 L 13269.224655 14963.839136 L 13173.782703 14937.126363 L 13130.950218 14921.192429 L 13089.980015 14902.915268 L 13051.803234 14883.232173 L 13016.885447 14859.799916 L 12982.898801 14837.773595 L 12953.102289 14811.060822 L 12923.771348 14782.942114 L 12898.164971 14753.886116 L 12852.073492 14691.087668 L 12810.172148 14624.071414 L 12773.857649 14553.774643 L 12743.129996 14477.854132 L 12717.98919 14399.121749 L 12697.969658 14315.23427 L 12684.933685 14228.066275 Z M 12675.156704 14136.211829 " transform="matrix(0.00839024,0,0,0.0083352,0,0)"/>
</g>
</svg>
