<?xml version="1.0" encoding="UTF-8"?>
<svg xmlns="http://www.w3.org/2000/svg" xmlns:xlink="http://www.w3.org/1999/xlink" width="px" height="150px" viewBox="0 0 150 150" version="1.1">
<defs>
<clipPath id="clip1">
  <path d="M 0 0.183594 L 149.816406 0.183594 L 149.816406 150 L 0 150 Z M 0 0.183594 "/>
</clipPath>
</defs>
<g id="surface1">
<g clip-path="url(#clip1)" clip-rule="nonzero">
<path style=" stroke:none;fill-rule:nonzero;fill:rgb(94.117647%,23.529412%,18.039216%);fill-opacity:1;" d="M 146.992188 68.421875 L 81.582031 3.011719 C 77.8125 -0.757812 71.699219 -0.757812 67.929688 3.011719 L 54.351562 16.597656 L 71.578125 33.824219 C 75.710938 32.421875 80.28125 33.484375 83.367188 36.570312 C 86.472656 39.679688 87.527344 44.285156 86.089844 48.433594 L 102.699219 65.039062 C 106.847656 63.597656 111.457031 64.65625 114.5625 67.765625 C 119.046875 72.25 119.046875 79.515625 114.5625 84 C 110.078125 88.484375 102.804688 88.484375 98.316406 84 C 95.042969 80.722656 94.058594 75.796875 95.824219 71.511719 L 80.335938 56.027344 L 80.335938 96.78125 C 83.652344 98.421875 85.976562 101.558594 86.578125 105.207031 C 87.179688 108.859375 85.984375 112.574219 83.367188 115.191406 C 78.886719 119.671875 71.617188 119.671875 67.136719 115.191406 C 62.648438 110.707031 62.648438 103.4375 67.136719 98.953125 C 68.207031 97.878906 69.484375 97.023438 70.890625 96.445312 L 70.890625 55.3125 C 68.0625 54.148438 65.816406 51.90625 64.648438 49.082031 C 63.480469 46.253906 63.484375 43.082031 64.664062 40.257812 L 47.675781 23.269531 L 2.820312 68.113281 C -0.941406 71.886719 -0.941406 77.992188 2.820312 81.761719 L 68.238281 147.179688 C 72.007812 150.941406 78.113281 150.941406 81.882812 147.179688 L 146.992188 82.070312 C 150.757812 78.296875 150.757812 72.191406 146.992188 68.421875 "/>
</g>
</g>
</svg>
