<?xml version="1.0" encoding="UTF-8"?>
<svg xmlns="http://www.w3.org/2000/svg" xmlns:xlink="http://www.w3.org/1999/xlink" width="px" height="150px" viewBox="0 0 111 149" version="1.1">
<g id="surface1">
<path style=" stroke:none;fill-rule:nonzero;fill:rgb(66.666667%,0%,0%);fill-opacity:1;" d="M 1.296875 51.472656 L 1.296875 97.503906 L 109.703125 97.503906 L 109.703125 51.472656 Z M 1.296875 51.472656 "/>
<path style="fill:none;stroke-width:2;stroke-linecap:butt;stroke-linejoin:miter;stroke:rgb(0%,0%,0%);stroke-opacity:1;stroke-miterlimit:0;" d="M 73.504798 15.349527 L 59.150911 0.994484 L 59.150911 15.349527 Z M 0.995203 1.00244 L 0.995203 100.15381 L 73.504798 100.15381 L 73.504798 15.357483 L 59.150911 1.00244 Z M 0.995203 1.00244 " transform="matrix(1.477714,0,0,1.472969,0.455155,0)"/>
<path style=" stroke:none;fill-rule:nonzero;fill:rgb(100%,100%,100%);fill-opacity:1;" d="M 18.75 83.179688 L 18.75 77.664062 L 13.214844 77.664062 L 13.214844 83.179688 Z M 18.75 83.179688 "/>
<path style=" stroke:none;fill-rule:nonzero;fill:rgb(100%,100%,100%);fill-opacity:1;" d="M 43.054688 83.179688 L 43.054688 80.101562 L 41.246094 80.101562 L 41.246094 68.898438 L 43.054688 68.898438 L 43.054688 65.820312 L 35.5 65.820312 L 35.5 68.898438 L 37.308594 68.898438 L 37.308594 72.855469 L 31.953125 72.855469 L 31.953125 68.898438 L 33.800781 68.898438 L 33.800781 65.820312 L 26.210938 65.820312 L 26.210938 68.898438 L 28.054688 68.898438 L 28.054688 80.101562 L 26.210938 80.101562 L 26.210938 83.179688 L 33.800781 83.179688 L 33.800781 80.101562 L 31.953125 80.101562 L 31.953125 75.933594 L 37.308594 75.933594 L 37.308594 80.101562 L 35.5 80.101562 L 35.5 83.179688 Z M 43.054688 83.179688 "/>
<path style=" stroke:none;fill-rule:nonzero;fill:rgb(100%,100%,100%);fill-opacity:1;" d="M 61.226562 70.875 L 61.226562 65.820312 L 45.304688 65.820312 L 45.304688 70.875 L 48.601562 70.875 L 48.601562 68.898438 L 51.296875 68.898438 L 51.296875 80.101562 L 48.957031 80.101562 L 48.957031 83.179688 L 57.574219 83.179688 L 57.574219 80.101562 L 55.269531 80.101562 L 55.269531 68.898438 L 57.929688 68.898438 L 57.929688 70.875 Z M 61.226562 70.875 "/>
<path style=" stroke:none;fill-rule:nonzero;fill:rgb(100%,100%,100%);fill-opacity:1;" d="M 80.109375 83.179688 L 80.109375 80.101562 L 78.300781 80.101562 L 78.300781 68.898438 L 80.109375 68.898438 L 80.109375 65.820312 L 73.832031 65.820312 L 71.808594 71.160156 L 69.789062 65.820312 L 63.652344 65.820312 L 63.652344 68.898438 L 65.496094 68.898438 L 65.496094 80.101562 L 63.652344 80.101562 L 63.652344 83.179688 L 70.460938 83.179688 L 70.460938 80.101562 L 68.476562 80.101562 L 68.476562 72.078125 L 70.109375 76.390625 L 73.265625 76.390625 L 74.824219 72.042969 L 74.824219 80.101562 L 73.015625 80.101562 L 73.015625 83.179688 Z M 80.109375 83.179688 "/>
<path style=" stroke:none;fill-rule:nonzero;fill:rgb(100%,100%,100%);fill-opacity:1;" d="M 97.785156 83.179688 L 97.785156 78.089844 L 94.484375 78.089844 L 94.484375 80.101562 L 88.492188 80.101562 L 88.492188 68.898438 L 90.300781 68.898438 L 90.300781 65.820312 L 82.710938 65.820312 L 82.710938 68.898438 L 84.554688 68.898438 L 84.554688 80.101562 L 82.710938 80.101562 L 82.710938 83.179688 Z M 97.785156 83.179688 "/>
</g>
</svg>
