<?xml version="1.0" encoding="UTF-8"?>
<svg xmlns="http://www.w3.org/2000/svg" xmlns:xlink="http://www.w3.org/1999/xlink" width="px" height="150px" viewBox="0 0 132 149" version="1.1">
<g id="surface1">
<path style=" stroke:none;fill-rule:nonzero;fill:rgb(83.137255%,72.156863%,18.823529%);fill-opacity:1;" d="M 0 0 L 12.03125 134.242188 L 66.019531 149.152344 L 120.15625 134.21875 L 132.199219 0 Z M 61.65625 118.316406 C 20.507812 110.152344 61.65625 118.316406 20.351562 110.160156 L 18.03125 84.308594 C 23.570312 84.308594 34.644531 84.308594 34.644531 84.308594 L 35.824219 97.4375 L 45.042969 98.78125 L 45.042969 42.757812 L 26.234375 42.757812 L 24.699219 26.289062 L 61.65625 26.289062 Z M 112.796875 42.75 L 88 42.75 L 88 59.613281 L 111.324219 59.613281 L 106.738281 110.160156 L 70.695312 118.316406 L 70.695312 101.152344 L 91.265625 97.425781 L 93.261719 76.074219 L 70.695312 76.074219 L 70.695312 26.289062 L 114.265625 26.289062 Z M 112.796875 42.75 "/>
</g>
</svg>
