<?xml version="1.0" encoding="UTF-8"?>
<svg xmlns="http://www.w3.org/2000/svg" xmlns:xlink="http://www.w3.org/1999/xlink" width="px" height="150px" viewBox="0 0 150 150" version="1.1">
<g id="surface1">
<path style=" stroke:none;fill-rule:nonzero;fill:rgb(100%,100%,100%);fill-opacity:1;" d="M 0.441406 74.851562 C 0.441406 86.113281 11.4375 96.621094 28.769531 102.546875 C 25.304688 119.96875 28.148438 134.015625 37.636719 139.488281 C 47.390625 145.113281 61.917969 141.21875 75.710938 129.164062 C 89.152344 140.730469 102.738281 145.285156 112.21875 139.796875 C 121.964844 134.15625 124.929688 119.160156 121.371094 101.191406 C 139.421875 95.222656 149.523438 86.261719 149.523438 74.851562 C 149.523438 63.855469 138.507812 54.34375 121.410156 48.457031 C 125.238281 29.746094 121.992188 16.042969 112.113281 10.34375 C 102.585938 4.851562 88.839844 9.636719 75.199219 21.507812 C 61.007812 8.910156 47.402344 5.0625 37.53125 10.777344 C 28.011719 16.285156 25.296875 30.585938 28.769531 48.332031 C 12.019531 54.171875 0.441406 63.902344 0.441406 74.851562 Z M 0.441406 74.851562 "/>
<path style=" stroke:none;fill-rule:nonzero;fill:rgb(32.54902%,75.686275%,87.058824%);fill-opacity:1;" d="M 117.789062 54.300781 C 116.378906 53.816406 114.957031 53.371094 113.527344 52.957031 C 113.761719 51.992188 113.984375 51.023438 114.183594 50.050781 C 117.410156 34.390625 115.300781 21.773438 108.097656 17.621094 C 101.191406 13.636719 89.894531 17.789062 78.488281 27.71875 C 77.363281 28.699219 76.265625 29.707031 75.191406 30.742188 C 74.472656 30.054688 73.742188 29.378906 72.996094 28.71875 C 61.042969 18.101562 49.058594 13.628906 41.859375 17.792969 C 34.960938 21.789062 32.917969 33.648438 35.820312 48.492188 C 36.109375 49.960938 36.4375 51.421875 36.800781 52.875 C 35.105469 53.359375 33.46875 53.871094 31.898438 54.417969 C 17.882812 59.304688 8.929688 66.964844 8.929688 74.90625 C 8.929688 83.113281 18.539062 91.34375 33.140625 96.332031 C 34.324219 96.734375 35.519531 97.109375 36.722656 97.453125 C 36.332031 99.015625 35.984375 100.59375 35.679688 102.179688 C 32.910156 116.761719 35.074219 128.34375 41.957031 132.3125 C 49.066406 136.410156 60.996094 132.199219 72.609375 122.042969 C 73.527344 121.242188 74.449219 120.390625 75.375 119.496094 C 76.535156 120.617188 77.730469 121.707031 78.953125 122.761719 C 90.203125 132.445312 101.316406 136.355469 108.195312 132.375 C 115.296875 128.265625 117.601562 115.824219 114.605469 100.6875 C 114.378906 99.53125 114.109375 98.351562 113.8125 97.148438 C 114.648438 96.902344 115.472656 96.648438 116.273438 96.378906 C 131.453125 91.351562 141.328125 83.222656 141.328125 74.90625 C 141.328125 66.933594 132.085938 59.222656 117.789062 54.300781 Z M 117.789062 54.300781 "/>
<path style=" stroke:none;fill-rule:nonzero;fill:rgb(100%,100%,100%);fill-opacity:1;" d="M 114.496094 91.011719 C 113.773438 91.253906 113.027344 91.484375 112.273438 91.707031 C 110.597656 86.402344 108.335938 80.761719 105.566406 74.9375 C 108.207031 69.246094 110.382812 63.679688 112.011719 58.40625 C 113.367188 58.800781 114.679688 59.214844 115.945312 59.648438 C 128.199219 63.867188 135.671875 70.101562 135.671875 74.90625 C 135.671875 80.027344 127.601562 86.671875 114.496094 91.011719 Z M 109.058594 101.789062 C 110.382812 108.480469 110.570312 114.53125 109.695312 119.261719 C 108.90625 123.511719 107.320312 126.34375 105.359375 127.480469 C 101.1875 129.894531 92.265625 126.757812 82.640625 118.476562 C 81.539062 117.527344 80.425781 116.511719 79.3125 115.441406 C 83.042969 111.359375 86.773438 106.617188 90.410156 101.347656 C 96.8125 100.78125 102.859375 99.851562 108.339844 98.585938 C 108.609375 99.675781 108.851562 100.742188 109.058594 101.789062 Z M 54.066406 127.0625 C 49.992188 128.503906 46.746094 128.542969 44.78125 127.414062 C 40.605469 125.003906 38.871094 115.707031 41.238281 103.234375 C 41.519531 101.757812 41.84375 100.292969 42.203125 98.835938 C 47.628906 100.039062 53.632812 100.898438 60.046875 101.421875 C 63.710938 106.574219 67.546875 111.3125 71.410156 115.460938 C 70.589844 116.257812 69.75 117.03125 68.890625 117.785156 C 63.753906 122.273438 58.605469 125.460938 54.070312 127.0625 Z M 34.96875 90.980469 C 28.515625 88.773438 23.183594 85.90625 19.527344 82.777344 C 16.246094 79.964844 14.585938 77.171875 14.585938 74.90625 C 14.585938 70.085938 21.773438 63.9375 33.761719 59.757812 C 35.265625 59.234375 36.785156 58.757812 38.320312 58.324219 C 39.976562 63.714844 42.148438 69.347656 44.773438 75.046875 C 42.117188 80.828125 39.910156 86.550781 38.238281 92.003906 C 37.140625 91.691406 36.050781 91.347656 34.96875 90.980469 Z M 41.371094 47.40625 C 38.882812 34.6875 40.535156 25.097656 44.695312 22.6875 C 49.125 20.125 58.917969 23.78125 69.242188 32.945312 C 69.902344 33.53125 70.5625 34.144531 71.226562 34.78125 C 67.382812 38.910156 63.582031 43.613281 59.949219 48.738281 C 53.722656 49.316406 47.761719 50.242188 42.28125 51.484375 C 41.945312 50.132812 41.640625 48.769531 41.371094 47.402344 Z M 98.480469 61.507812 C 97.1875 59.269531 95.84375 57.0625 94.457031 54.886719 C 98.679688 55.417969 102.726562 56.128906 106.527344 56.996094 C 105.386719 60.652344 103.964844 64.476562 102.289062 68.394531 C 101.066406 66.074219 99.796875 63.777344 98.480469 61.507812 Z M 75.191406 38.824219 C 77.800781 41.648438 80.414062 44.804688 82.984375 48.226562 C 77.769531 47.980469 72.550781 47.980469 67.335938 48.222656 C 69.90625 44.832031 72.542969 41.679688 75.191406 38.824219 Z M 51.753906 61.546875 C 50.457031 63.796875 49.210938 66.082031 48.015625 68.390625 C 46.371094 64.484375 44.960938 60.644531 43.808594 56.9375 C 47.585938 56.089844 51.617188 55.398438 55.8125 54.875 C 54.40625 57.066406 53.054688 59.289062 51.753906 61.546875 Z M 55.933594 95.34375 C 51.597656 94.859375 47.507812 94.203125 43.730469 93.382812 C 44.902344 89.609375 46.339844 85.683594 48.023438 81.695312 C 49.222656 84.007812 50.472656 86.289062 51.777344 88.542969 C 53.109375 90.84375 54.496094 93.109375 55.933594 95.34375 Z M 75.347656 111.390625 C 72.667969 108.5 69.996094 105.300781 67.382812 101.859375 C 69.917969 101.957031 72.503906 102.007812 75.128906 102.007812 C 77.828125 102.007812 80.496094 101.949219 83.121094 101.832031 C 80.542969 105.335938 77.941406 108.539062 75.347656 111.390625 Z M 102.34375 81.492188 C 104.113281 85.523438 105.605469 89.425781 106.789062 93.136719 C 102.953125 94.011719 98.808594 94.71875 94.441406 95.242188 C 95.839844 93.023438 97.195312 90.777344 98.503906 88.503906 C 99.835938 86.195312 101.117188 83.855469 102.34375 81.492188 Z M 93.605469 85.679688 C 91.601562 89.164062 89.480469 92.582031 87.253906 95.929688 C 83.324219 96.207031 79.265625 96.351562 75.128906 96.351562 C 71.007812 96.351562 67 96.226562 63.140625 95.976562 C 60.855469 92.636719 58.699219 89.210938 56.671875 85.710938 C 54.65625 82.226562 52.769531 78.667969 51.023438 75.042969 C 52.765625 71.417969 54.644531 67.855469 56.65625 64.371094 C 58.664062 60.882812 60.804688 57.476562 63.074219 54.152344 C 67.011719 53.855469 71.050781 53.699219 75.128906 53.699219 C 79.230469 53.699219 83.273438 53.855469 87.207031 54.15625 C 89.453125 57.472656 91.582031 60.871094 93.585938 64.339844 C 95.605469 67.816406 97.507812 71.359375 99.292969 74.964844 C 97.527344 78.601562 95.628906 82.175781 93.605469 85.679688 Z M 105.273438 22.519531 C 109.707031 25.078125 111.429688 35.386719 108.644531 48.910156 C 108.460938 49.789062 108.265625 50.667969 108.050781 51.542969 C 102.558594 50.273438 96.59375 49.332031 90.347656 48.746094 C 86.710938 43.566406 82.941406 38.855469 79.15625 34.777344 C 80.148438 33.820312 81.164062 32.890625 82.199219 31.984375 C 91.976562 23.480469 101.109375 20.121094 105.273438 22.519531 Z M 105.273438 22.519531 "/>
<path style=" stroke:none;fill-rule:nonzero;fill:rgb(32.54902%,75.686275%,87.058824%);fill-opacity:1;" d="M 75.128906 63.085938 C 81.660156 63.085938 86.953125 68.378906 86.953125 74.90625 C 86.953125 81.4375 81.660156 86.730469 75.128906 86.730469 C 68.601562 86.730469 63.308594 81.4375 63.308594 74.90625 C 63.308594 68.378906 68.601562 63.085938 75.128906 63.085938 "/>
</g>
</svg>
